<?xml version="1.0" encoding="utf-8"?>
<!-- Generator: Adobe Illustrator 26.0.0, SVG Export Plug-In . SVG Version: 6.00 Build 0)  -->
<svg version="1.1" id="Capa_1" xmlns="http://www.w3.org/2000/svg" xmlns:xlink="http://www.w3.org/1999/xlink" x="0px" y="0px"
	 viewBox="0 0 142.4 142.4" style="enable-background:new 0 0 142.4 142.4;" xml:space="preserve">
<style type="text/css">
	.st0{fill:#EC5863;}
</style>
<g>
	<path class="st0" d="M71.2,0C32,0,0,32,0,71.2s32,71.2,71.2,71.2s71.2-32,71.2-71.2S110.5,0,71.2,0z M71.2,127.4
		c-31,0-56.2-25.2-56.2-56.2S40.2,15,71.2,15s56.2,25.2,56.2,56.2S102.2,127.4,71.2,127.4z"/>
	<path class="st0" d="M100.9,72H71.7V46.7c0-4.1-3.4-7.5-7.5-7.5s-7.5,3.4-7.5,7.5v32.8c0,4.1,3.4,7.5,7.5,7.5h36.7
		c4.1,0,7.5-3.4,7.5-7.5S105.1,72,100.9,72z"/>
</g>
</svg>
